<svg width="75" height="75" viewBox="0 0 75 75" fill="none" xmlns="http://www.w3.org/2000/svg">
<path d="M37.5 0C16.7896 0 0 16.7893 0 37.5C0 58.2107 16.7896 75 37.5 75C58.2104 75 75 58.2107 75 37.5C75 16.7893 58.2104 0 37.5 0ZM50.4609 39.4878L31.7109 51.2065C31.3315 51.4434 30.9001 51.5625 30.4688 51.5625C30.0779 51.5625 29.6865 51.4652 29.3323 51.2684C28.5873 50.8553 28.125 50.0713 28.125 49.2188V25.7812C28.125 24.9287 28.5873 24.1447 29.3323 23.7316C30.0773 23.3162 30.9883 23.3414 31.7109 23.7935L50.4609 35.5122C51.1459 35.9414 51.5625 36.6921 51.5625 37.5C51.5625 38.3079 51.1459 39.0587 50.4609 39.4878Z" fill="white"/>
</svg>
